<svg id="Layer_1" data-name="Layer 1"
  xmlns="http://www.w3.org/2000/svg" viewBox="0 0 500 500">
  <defs>
    <style>.cls-1{fill:#1299ee;}.cls-2{fill:#fff;}.cls-3{fill:#ededed;}.cls-4{fill:#ffa41b;}</style>
  </defs>
  <title>OSB_3</title>
  <path class="cls-1" d="M500,250A249.7,249.7,0,0,1,382.26,462.19q-4.92,3.07-10,5.93c-1.27.71-2.54,1.41-3.82,2.1q-10.12,5.46-20.8,10a250.88,250.88,0,0,1-195.28,0q-10.67-4.53-20.8-10c-1.32-.71-2.64-1.44-4-2.17q-5.07-2.85-10-5.94A251,251,0,0,1,22.73,354.3a246.81,246.81,0,0,1-10-25.33A249.65,249.65,0,0,1,0,250C0,111.93,111.93,0,250,0S500,111.93,500,250Z"/>
  <circle class="cls-2" cx="313.88" cy="169.21" r="71.56" transform="translate(-27.72 271.51) rotate(-45)"/>
  <circle class="cls-3" cx="313.88" cy="169.21" r="61.56"/>
  <path class="cls-3" d="M118,220.9H262.43A26.54,26.54,0,0,1,289,247.44V419.81a0,0,0,0,1,0,0H91.45a0,0,0,0,1,0,0V247.44A26.54,26.54,0,0,1,118,220.9Z"/>
  <circle class="cls-2" cx="194.3" cy="169.21" r="71.56" transform="translate(-15.03 319.44) rotate(-76.72)"/>
  <circle class="cls-3" cx="194.3" cy="169.21" r="61.56"/>
  <path class="cls-2" d="M487.15,313.75v15.59a247.21,247.21,0,0,1-10,25.22,251,251,0,0,1-94.89,107.63q-4.92,3.07-10,5.93c-1.27.71-2.54,1.41-3.82,2.1q-10.12,5.46-20.8,10H285.53a15.9,15.9,0,0,1-15.9-15.91V313.75a54.52,54.52,0,0,1,.28-5.46,52.46,52.46,0,0,1,52.16-47H434.7a53,53,0,0,1,5.67.3A52.46,52.46,0,0,1,487.15,313.75Z"/>
  <path class="cls-3" d="M477.15,313.75v40.81a251,251,0,0,1-94.89,107.63q-4.92,3.07-10,5.93c-1.27.71-2.54,1.41-3.82,2.1H295.53a15.9,15.9,0,0,1-15.9-15.91V313.75a42.8,42.8,0,0,1,.35-5.46,41.84,41.84,0,0,1,2.55-10,42.53,42.53,0,0,1,39.54-27H434.7A42.45,42.45,0,0,1,477.15,313.75Z"/>
  <path class="cls-2" d="M387.16,291a71.57,71.57,0,1,1,66.73-66.74A71.64,71.64,0,0,1,387.16,291Z"/>
  <circle class="cls-3" cx="382.48" cy="219.61" r="61.56"/>
  <path class="cls-2" d="M131.56,470.22q10.13,5.46,20.8,10h62a15.9,15.9,0,0,0,15.9-15.91V313.75a54.52,54.52,0,0,0-.28-5.46,52.42,52.42,0,0,0-46.5-46.69c-.92-.1-1.85-.17-2.79-.22s-1.91-.08-2.87-.08H65.17a52.44,52.44,0,0,0-52.44,52.45V329a246.81,246.81,0,0,0,10,25.33,251,251,0,0,0,94.88,107.81q4.92,3.09,10,5.94Z"/>
  <path class="cls-3" d="M131.56,470.22h72.79a15.9,15.9,0,0,0,15.9-15.91V313.75c0-.54,0-1.07,0-1.6-.05-1.3-.15-2.59-.32-3.86a41.84,41.84,0,0,0-2.55-10,42.5,42.5,0,0,0-33.5-26.55,42.94,42.94,0,0,0-6-.43H65.17a42.44,42.44,0,0,0-42.44,42.44V354.3a251,251,0,0,0,94.88,107.81q4.92,3.09,10,5.94Z"/>
  <path class="cls-2" d="M130.26,291A71.57,71.57,0,1,1,197,224.29,71.64,71.64,0,0,1,130.26,291Z"/>
  <circle class="cls-3" cx="125.58" cy="219.61" r="61.56"/>
  <path class="cls-2" d="M131.56,470.22q10.13,5.46,20.8,10a250.88,250.88,0,0,0,195.28,0q10.67-4.53,20.8-10c1.28-.69,2.55-1.39,3.82-2.1q5.07-2.85,10-5.93V349.7a51.41,51.41,0,0,0-51.41-51.41H169a51.41,51.41,0,0,0-51.41,51.41V462.11q4.92,3.09,10,5.94Z"/>
  <path class="cls-4" d="M131.56,470.22q10.13,5.46,20.8,10a250.88,250.88,0,0,0,195.28,0q10.67-4.53,20.8-10c1.28-.69,2.55-1.39,3.82-2.1V349.7a41.41,41.41,0,0,0-41.41-41.41H169a41.41,41.41,0,0,0-41.41,41.41V468.05Z"/>
  <circle class="cls-2" cx="255" cy="244.27" r="86.25" transform="translate(-98.03 251.86) rotate(-45)"/>
  <circle class="cls-4" cx="255" cy="244.27" r="76.25"/>
</svg>